<svg xmlns="http://www.w3.org/2000/svg" xmlns:xlink="http://www.w3.org/1999/xlink" contentStyleType="text/css" height="443px" preserveAspectRatio="none" style="width:714px;height:443px;background:#FFFFFF;" version="1.1" viewBox="0 0 714 443" width="714px" zoomAndPan="magnify"><defs/><g><!--entity A--><g id="elem_A"><rect fill="#F1F1F1" height="38.4775" rx="2.5" ry="2.5" style="stroke:#181818;stroke-width:0.5;" width="131.3438" x="12.5" y="7"/><text fill="#000000" font-family="Microsoft YaHei" font-size="14" lengthAdjust="spacing" textLength="111.3438" x="22.5" y="31.8135">USB Type-C &#20379;&#30005;</text></g><!--entity B--><g id="elem_B"><rect fill="#F1F1F1" height="38.4775" rx="2.5" ry="2.5" style="stroke:#181818;stroke-width:0.5;" width="142.4385" x="7" y="105"/><text fill="#000000" font-family="Microsoft YaHei" font-size="14" lengthAdjust="spacing" textLength="122.4385" x="17" y="129.8135">AMS1117-3.3 &#31283;&#21387;</text></g><!--entity C--><g id="elem_C"><rect fill="#F1F1F1" height="38.4775" rx="2.5" ry="2.5" style="stroke:#181818;stroke-width:0.5;" width="109.4004" x="23.5" y="203"/><text fill="#000000" font-family="Microsoft YaHei" font-size="14" lengthAdjust="spacing" textLength="89.4004" x="33.5" y="227.8135">3.3V &#30005;&#28304;&#28388;&#27874;</text></g><!--entity D--><g id="elem_D"><rect fill="#F1F1F1" height="38.4775" rx="2.5" ry="2.5" style="stroke:#181818;stroke-width:0.5;" width="135.9102" x="304" y="301"/><text fill="#000000" font-family="Microsoft YaHei" font-size="14" lengthAdjust="spacing" textLength="115.9102" x="314" y="325.8135">STM32F407 MCU</text></g><!--entity E--><g id="elem_E"><rect fill="#F1F1F1" height="38.4775" rx="2.5" ry="2.5" style="stroke:#181818;stroke-width:0.5;" width="91.7432" x="168" y="203"/><text fill="#000000" font-family="Microsoft YaHei" font-size="14" lengthAdjust="spacing" textLength="71.7432" x="178" y="227.8135">8MHz &#26230;&#25391;</text></g><!--entity F--><g id="elem_F"><rect fill="#F1F1F1" height="38.4775" rx="2.5" ry="2.5" style="stroke:#181818;stroke-width:0.5;" width="152.5693" x="295.5" y="203"/><text fill="#000000" font-family="Microsoft YaHei" font-size="14" lengthAdjust="spacing" textLength="132.5693" x="305.5" y="227.8135">32.768kHz RTC &#26230;&#25391;</text></g><!--entity G--><g id="elem_G"><rect fill="#F1F1F1" height="38.4775" rx="2.5" ry="2.5" style="stroke:#181818;stroke-width:0.5;" width="76" x="484" y="203"/><text fill="#000000" font-family="Microsoft YaHei" font-size="14" lengthAdjust="spacing" textLength="56" x="494" y="227.8135">&#22797;&#20301;&#30005;&#36335;</text></g><!--entity H--><g id="elem_H"><rect fill="#F1F1F1" height="38.4775" rx="2.5" ry="2.5" style="stroke:#181818;stroke-width:0.5;" width="113.1328" x="595.5" y="203"/><text fill="#000000" font-family="Microsoft YaHei" font-size="14" lengthAdjust="spacing" textLength="93.1328" x="605.5" y="227.8135">SWD &#35843;&#35797;&#25509;&#21475;</text></g><!--entity I--><g id="elem_I"><rect fill="#F1F1F1" height="38.4775" rx="2.5" ry="2.5" style="stroke:#181818;stroke-width:0.5;" width="77.6885" x="235" y="399"/><text fill="#000000" font-family="Microsoft YaHei" font-size="14" lengthAdjust="spacing" textLength="57.6885" x="245" y="423.8135">LED &#25351;&#31034;</text></g><!--entity J--><g id="elem_J"><rect fill="#F1F1F1" height="38.4775" rx="2.5" ry="2.5" style="stroke:#181818;stroke-width:0.5;" width="48" x="348" y="399"/><text fill="#000000" font-family="Microsoft YaHei" font-size="14" lengthAdjust="spacing" textLength="28" x="358" y="423.8135">&#25353;&#38190;</text></g><!--entity K--><g id="elem_K"><rect fill="#F1F1F1" height="38.4775" rx="2.5" ry="2.5" style="stroke:#181818;stroke-width:0.5;" width="114.6436" x="431.5" y="399"/><text fill="#000000" font-family="Microsoft YaHei" font-size="14" lengthAdjust="spacing" textLength="94.6436" x="441.5" y="423.8135">GPIO &#25490;&#38024;&#24341;&#20986;</text></g><!--link A to B--><g id="link_A_B"><path d="M78,45.06 C78,62.11 78,81.56 78,98.7 " fill="none" id="A-to-B" style="stroke:#181818;stroke-width:1.0;"/><polygon fill="#181818" points="78,104.7,82,95.7,78,99.7,74,95.7,78,104.7" style="stroke:#181818;stroke-width:1.0;"/></g><!--link B to C--><g id="link_B_C"><path d="M78,143.06 C78,160.11 78,179.56 78,196.7 " fill="none" id="B-to-C" style="stroke:#181818;stroke-width:1.0;"/><polygon fill="#181818" points="78,202.7,82,193.7,78,197.7,74,193.7,78,202.7" style="stroke:#181818;stroke-width:1.0;"/></g><!--link C to D--><g id="link_C_D"><path d="M132.61,240.83 C185.09,257.97 258.2663,281.8677 310.9763,299.0777 " fill="none" id="C-to-D" style="stroke:#181818;stroke-width:1.0;"/><polygon fill="#181818" points="316.68,300.94,309.366,294.3441,311.9269,299.3881,306.883,301.949,316.68,300.94" style="stroke:#181818;stroke-width:1.0;"/></g><!--link E to D--><g id="link_E_D"><path d="M243.72,241.06 C271.88,258.17 308.8115,280.6158 337.0215,297.7458 " fill="none" id="E-to-D" style="stroke:#181818;stroke-width:1.0;"/><polygon fill="#181818" points="342.15,300.86,336.5333,292.7697,337.8762,298.2648,332.3811,299.6077,342.15,300.86" style="stroke:#181818;stroke-width:1.0;"/></g><!--link F to D--><g id="link_F_D"><path d="M372,241.06 C372,258.11 372,277.56 372,294.7 " fill="none" id="F-to-D" style="stroke:#181818;stroke-width:1.0;"/><polygon fill="#181818" points="372,300.7,376,291.7,372,295.7,368,291.7,372,300.7" style="stroke:#181818;stroke-width:1.0;"/></g><!--link G to D--><g id="link_G_D"><path d="M493.79,241.06 C467.05,258.17 432.1744,280.4969 405.3944,297.6269 " fill="none" id="G-to-D" style="stroke:#181818;stroke-width:1.0;"/><polygon fill="#181818" points="400.34,300.86,410.077,299.38,404.552,298.1658,405.7662,292.6408,400.34,300.86" style="stroke:#181818;stroke-width:1.0;"/></g><!--link H to D--><g id="link_H_D"><path d="M599.33,241.06 C549.43,258.17 480.5559,281.7847 430.5759,298.9147 " fill="none" id="H-to-D" style="stroke:#181818;stroke-width:1.0;"/><polygon fill="#181818" points="424.9,300.86,434.7107,301.7259,429.6299,299.2389,432.1169,294.1581,424.9,300.86" style="stroke:#181818;stroke-width:1.0;"/></g><!--link D to I--><g id="link_D_I"><path d="M353.57,339.06 C336.16,356.11 314.4665,377.3617 296.9665,394.5017 " fill="none" id="D-to-I" style="stroke:#181818;stroke-width:1.0;"/><polygon fill="#181818" points="292.68,398.7,301.9086,395.2602,296.2521,395.2014,296.3109,389.5448,292.68,398.7" style="stroke:#181818;stroke-width:1.0;"/></g><!--link D to J--><g id="link_D_J"><path d="M372,339.06 C372,356.11 372,375.56 372,392.7 " fill="none" id="D-to-J" style="stroke:#181818;stroke-width:1.0;"/><polygon fill="#181818" points="372,398.7,376,389.7,372,393.7,368,389.7,372,398.7" style="stroke:#181818;stroke-width:1.0;"/></g><!--link D to K--><g id="link_D_K"><path d="M394.01,339.06 C414.79,356.11 441.1724,377.7531 462.0524,394.8931 " fill="none" id="D-to-K" style="stroke:#181818;stroke-width:1.0;"/><polygon fill="#181818" points="466.69,398.7,462.2715,389.8979,462.8253,395.5276,457.1956,396.0814,466.69,398.7" style="stroke:#181818;stroke-width:1.0;"/></g><!--SRC=[LP3BJi9058RtVOeJN9S8665b0YsbW5N3HUDoW48Qe4FQOQ5R5sW4D0GMnfrYuafCY9hWvMde06_XE3HccCqtEVztpfcCMxVi5d9G4ofc5RKRHCCsEK1D4mA6LNQmYwi4Jf5kMW79_NTBg5olERXjLnJSm0viLVcH26u1mL32X60sqNBCCh6mBKb_5sJN6cniCP-0mbdBb1MO_zmlXcy1G2x4HILkv4EXK5IE12EmU9vw_Mlk94I7PSV0kkdibdwEwVI1Augev0j69ApjR4V1K8eyLiKuPkZdGE_UQNV2m-J6-70mkXkhCoDNK4HB4orlt9j_zzWhbX_hDBMn_qI5vUl5SZAY_IVlvf4RkcZi9rMWtSvYFEDPMinezserVE7rZ5XF7QKFWVO7gy6bzpNoEklMh1G7MTvZVvJWL2I5KvMIFZMVAP-wJvKpxJFZC_iB]--></g></svg>