<svg xmlns="http://www.w3.org/2000/svg" xmlns:xlink="http://www.w3.org/1999/xlink" contentStyleType="text/css" height="1227px" preserveAspectRatio="none" style="width:465px;height:1227px;background:#FFFFFF;" version="1.1" viewBox="0 0 465 1227" width="465px" zoomAndPan="magnify"><defs><filter height="300%" id="f1m8afdap6k6uy" width="300%" x="-1" y="-1"><feGaussianBlur result="blurOut" stdDeviation="2.0"/><feColorMatrix in="blurOut" result="blurOut2" type="matrix" values="0 0 0 0 0 0 0 0 0 0 0 0 0 0 0 0 0 0 .4 0"/><feOffset dx="4.0" dy="4.0" in="blurOut2" result="blurOut3"/><feBlend in="SourceGraphic" in2="blurOut3" mode="normal"/></filter></defs><g><g id="elem_START"><ellipse cx="310.0269" cy="22.322" fill="#F1F1F1" filter="url(#f1m8afdap6k6uy)" rx="52.0269" ry="16.322" style="stroke:#181818;stroke-width:0.5;"/><text fill="#000000" font-family="Microsoft YaHei" font-size="14" lengthAdjust="spacing" textLength="56" x="279.0269" y="26.9787">&#19978;&#30005;&#22797;&#20301;</text></g><!--entity INIT--><g id="elem_INIT"><rect fill="#F1F1F1" filter="url(#f1m8afdap6k6uy)" height="56.9551" rx="2.5" ry="2.5" style="stroke:#181818;stroke-width:0.5;" width="254.6094" x="182.5" y="100"/><text fill="#000000" font-family="Microsoft YaHei" font-size="14" lengthAdjust="spacing" textLength="42" x="192.5" y="124.8135">&#21021;&#22987;&#21270;</text><text fill="#000000" font-family="Microsoft YaHei" font-size="14" lengthAdjust="spacing" textLength="234.6094" x="192.5" y="143.291">GPIO/USART3/SPI1/Timer7/W5500</text></g><!--entity MAIN--><g id="elem_MAIN"><rect fill="#F1F1F1" filter="url(#f1m8afdap6k6uy)" height="24.4775" rx="2.5" ry="2.5" style="stroke:#181818;stroke-width:0.5;" width="62" x="279" y="218"/><text fill="#000000" font-family="Microsoft YaHei" font-size="14" lengthAdjust="spacing" textLength="42" x="289" y="235.8135">&#20027;&#24490;&#29615;</text></g><!--entity T1--><g id="elem_T1"><rect fill="#F1F1F1" filter="url(#f1m8afdap6k6uy)" height="38.4775" rx="2.5" ry="2.5" style="stroke:#181818;stroke-width:0.5;" width="90" x="74" y="321"/><text fill="#000000" font-family="Microsoft YaHei" font-size="14" lengthAdjust="spacing" textLength="70" x="84" y="345.8135">&#35835;&#31995;&#32479;&#26102;&#22522;</text></g><!--entity POLL--><g id="elem_POLL"><rect fill="#F1F1F1" filter="url(#f1m8afdap6k6uy)" height="38.4775" rx="2.5" ry="2.5" style="stroke:#181818;stroke-width:0.5;" width="104" x="199" y="321"/><text fill="#000000" font-family="Microsoft YaHei" font-size="14" lengthAdjust="spacing" textLength="84" x="209" y="345.8135">&#36873;&#25321;&#19979;&#19968;&#20174;&#31449;</text></g><!--entity SEND--><g id="elem_SEND"><rect fill="#F1F1F1" filter="url(#f1m8afdap6k6uy)" height="56.9551" rx="2.5" ry="2.5" style="stroke:#181818;stroke-width:0.5;" width="153.8682" x="149" y="420"/><text fill="#000000" font-family="Microsoft YaHei" font-size="14" lengthAdjust="spacing" textLength="133.8682" x="159" y="444.8135">&#21457;&#36865; Modbus &#35831;&#27714;&#24103;</text><text fill="#000000" font-family="Microsoft YaHei" font-size="14" lengthAdjust="spacing" textLength="36.9551" x="159" y="463.291">DE=1</text></g><!--entity WAIT--><g id="elem_WAIT"><rect fill="#F1F1F1" filter="url(#f1m8afdap6k6uy)" height="56.9551" rx="2.5" ry="2.5" style="stroke:#181818;stroke-width:0.5;" width="76" x="105" y="538"/><text fill="#000000" font-family="Microsoft YaHei" font-size="14" lengthAdjust="spacing" textLength="56" x="115" y="562.8135">&#31561;&#24453;&#21709;&#24212;</text><text fill="#000000" font-family="Microsoft YaHei" font-size="14" lengthAdjust="spacing" textLength="36.9551" x="115" y="581.291">DE=0</text></g><!--entity RECV--><g id="elem_RECV"><rect fill="#F1F1F1" filter="url(#f1m8afdap6k6uy)" height="38.4775" rx="2.5" ry="2.5" style="stroke:#181818;stroke-width:0.5;" width="114.3359" x="7" y="674"/><text fill="#000000" font-family="Microsoft YaHei" font-size="14" lengthAdjust="spacing" textLength="94.3359" x="17" y="698.8135">DMA &#25509;&#25910;&#23436;&#25104;</text></g><!--entity RTY--><g id="elem_RTY"><rect fill="#F1F1F1" filter="url(#f1m8afdap6k6uy)" height="38.4775" rx="2.5" ry="2.5" style="stroke:#181818;stroke-width:0.5;" width="96.7676" x="202.5" y="674"/><text fill="#000000" font-family="Microsoft YaHei" font-size="14" lengthAdjust="spacing" textLength="76.7676" x="212.5" y="698.8135">&#37325;&#35797;&#35745;&#25968;++</text></g><!--entity ALARM--><g id="elem_ALARM"><rect fill="#F1F1F1" filter="url(#f1m8afdap6k6uy)" height="38.4775" rx="2.5" ry="2.5" style="stroke:#181818;stroke-width:0.5;" width="104" x="199" y="876"/><text fill="#000000" font-family="Microsoft YaHei" font-size="14" lengthAdjust="spacing" textLength="84" x="209" y="900.8135">&#26631;&#35760;&#20174;&#31449;&#31163;&#32447;</text></g><!--entity CRC--><g id="elem_CRC"><rect fill="#F1F1F1" filter="url(#f1m8afdap6k6uy)" height="24.4775" rx="2.5" ry="2.5" style="stroke:#181818;stroke-width:0.5;" width="96.4326" x="57" y="773"/><text fill="#000000" font-family="Microsoft YaHei" font-size="14" lengthAdjust="spacing" textLength="76.4326" x="67" y="790.8135">CRC16 &#26657;&#39564;</text></g><!--entity PARSE--><g id="elem_PARSE"><rect fill="#F1F1F1" filter="url(#f1m8afdap6k6uy)" height="38.4775" rx="2.5" ry="2.5" style="stroke:#181818;stroke-width:0.5;" width="118" x="46" y="876"/><text fill="#000000" font-family="Microsoft YaHei" font-size="14" lengthAdjust="spacing" textLength="98" x="56" y="900.8135">&#35299;&#26512;&#25968;&#25454;&#24182;&#20889;&#27744;</text></g><!--entity UPLOAD--><g id="elem_UPLOAD"><rect fill="#F1F1F1" filter="url(#f1m8afdap6k6uy)" height="24.4775" rx="2.5" ry="2.5" style="stroke:#181818;stroke-width:0.5;" width="96.7607" x="255.5" y="975"/><text fill="#000000" font-family="Microsoft YaHei" font-size="14" lengthAdjust="spacing" textLength="76.7607" x="265.5" y="992.8135">&#19978;&#20256;&#21608;&#26399;&#21040;?</text></g><!--entity JSON--><g id="elem_JSON"><rect fill="#F1F1F1" filter="url(#f1m8afdap6k6uy)" height="38.4775" rx="2.5" ry="2.5" style="stroke:#181818;stroke-width:0.5;" width="88.5576" x="283.5" y="1078"/><text fill="#000000" font-family="Microsoft YaHei" font-size="14" lengthAdjust="spacing" textLength="68.5576" x="293.5" y="1102.8135">&#32452;&#35013; JSON</text></g><!--entity W5500--><g id="elem_W5500"><rect fill="#F1F1F1" filter="url(#f1m8afdap6k6uy)" height="38.4775" rx="2.5" ry="2.5" style="stroke:#181818;stroke-width:0.5;" width="151.0791" x="302.5" y="1177"/><text fill="#000000" font-family="Microsoft YaHei" font-size="14" lengthAdjust="spacing" textLength="131.0791" x="312.5" y="1201.8135">w5500_upload_json</text></g><!--link START to INIT--><g id="link_START_INIT"><path d="M310,39.3 C310,55.32 310,74.45 310,93.79 " fill="none" id="START-to-INIT" style="stroke:#181818;stroke-width:1.0;"/><polygon fill="#181818" points="310,99.79,314,90.79,310,94.79,306,90.79,310,99.79" style="stroke:#181818;stroke-width:1.0;"/></g><!--link INIT to MAIN--><g id="link_INIT_MAIN"><path d="M310,157.22 C310,177.23 310,197.2 310,211.78 " fill="none" id="INIT-to-MAIN" style="stroke:#181818;stroke-width:1.0;"/><polygon fill="#181818" points="310,217.78,314,208.78,310,212.78,306,208.78,310,217.78" style="stroke:#181818;stroke-width:1.0;"/></g><!--link MAIN to T1--><g id="link_MAIN_T1"><path d="M278.91,236.37 C251.75,242.09 212.09,253.01 182,272 C161.61,284.87 147.0114,301.109 135.4614,316.169 " fill="none" id="MAIN-to-T1" style="stroke:#181818;stroke-width:1.0;"/><polygon fill="#181818" points="131.81,320.93,140.4611,316.2227,134.8528,316.9625,134.1131,311.3542,131.81,320.93" style="stroke:#181818;stroke-width:1.0;"/><text fill="#000000" font-family="Microsoft YaHei" font-size="13" lengthAdjust="spacing" textLength="64.9873" x="183" y="286.7554">tick=10ms</text></g><!--link MAIN to POLL--><g id="link_MAIN_POLL"><path d="M292.09,242.12 C281.95,249.37 269.94,259.75 263,272 C254.5,287.01 252.112,300.6986 251.352,314.8386 " fill="none" id="MAIN-to-POLL" style="stroke:#181818;stroke-width:1.0;"/><polygon fill="#181818" points="251.03,320.83,255.5073,312.0577,251.2984,315.8372,247.5188,311.6283,251.03,320.83" style="stroke:#181818;stroke-width:1.0;"/><text fill="#000000" font-family="Microsoft YaHei" font-size="13" lengthAdjust="spacing" textLength="65" x="264" y="286.7554">&#36718;&#35810;&#21608;&#26399;&#21040;</text></g><!--link POLL to SEND--><g id="link_POLL_SEND"><path d="M246.76,359.07 C242.86,375.68 238.3925,394.7291 233.8925,413.8791 " fill="none" id="POLL-to-SEND" style="stroke:#181818;stroke-width:1.0;"/><polygon fill="#181818" points="232.52,419.72,238.4727,411.8737,233.6638,414.8526,230.6849,410.0436,232.52,419.72" style="stroke:#181818;stroke-width:1.0;"/></g><!--link SEND to WAIT--><g id="link_SEND_WAIT"><path d="M206.12,477.28 C192.98,495.65 179.3217,514.7407 166.2117,533.0607 " fill="none" id="SEND-to-WAIT" style="stroke:#181818;stroke-width:1.0;"/><polygon fill="#181818" points="162.72,537.94,171.2105,532.9488,165.6298,533.8739,164.7047,528.2932,162.72,537.94" style="stroke:#181818;stroke-width:1.0;"/></g><!--link WAIT to RECV--><g id="link_WAIT_RECV"><path d="M104.69,579.81 C83.64,588.77 59.36,603.2 47,625 C38.36,640.24 42.32,654.5781 49.71,668.6481 " fill="none" id="WAIT-to-RECV" style="stroke:#181818;stroke-width:1.0;"/><polygon fill="#181818" points="52.5,673.96,51.8563,664.1322,50.175,669.5334,44.7738,667.8522,52.5,673.96" style="stroke:#181818;stroke-width:1.0;"/><text fill="#000000" font-family="Microsoft YaHei" font-size="13" lengthAdjust="spacing" textLength="64.4351" x="48" y="639.7554">RXNE &#20013;&#26029;</text></g><!--link WAIT to RTY--><g id="link_WAIT_RTY"><path d="M140.5,595.3 C140.5,610.95 143,630.07 153,644 C164.88,660.54 178.4908,669.4274 196.7508,676.7474 " fill="none" id="WAIT-to-RTY" style="stroke:#181818;stroke-width:1.0;"/><polygon fill="#181818" points="202.32,678.98,195.4546,671.9184,197.679,677.1195,192.4779,679.344,202.32,678.98" style="stroke:#181818;stroke-width:1.0;"/><text fill="#000000" font-family="Microsoft YaHei" font-size="13" lengthAdjust="spacing" textLength="70.916" x="154" y="639.7554">&#36229;&#26102; 200ms</text></g><!--link RTY to SEND--><g id="link_RTY_SEND"><path d="M249.12,673.77 C244.78,631.67 234.6555,533.4183 229.4855,483.2883 " fill="none" id="RTY-to-SEND" style="stroke:#181818;stroke-width:1.0;"/><polygon fill="#181818" points="228.87,477.32,225.8144,486.6829,229.3829,482.2936,233.7722,485.8622,228.87,477.32" style="stroke:#181818;stroke-width:1.0;"/><text fill="#000000" font-family="Microsoft YaHei" font-size="13" lengthAdjust="spacing" textLength="50.959" x="242" y="571.7554">&#37325;&#35797; &lt; 3</text></g><!--link RTY to ALARM--><g id="link_RTY_ALARM"><path d="M251,712.1 C251,750.08 251,831.72 251,869.8 " fill="none" id="RTY-to-ALARM" style="stroke:#181818;stroke-width:1.0;"/><polygon fill="#181818" points="251,875.8,255,866.8,251,870.8,247,866.8,251,875.8" style="stroke:#181818;stroke-width:1.0;"/><text fill="#000000" font-family="Microsoft YaHei" font-size="13" lengthAdjust="spacing" textLength="50.959" x="252" y="790.2554">&#37325;&#35797; = 3</text></g><!--link RECV to CRC--><g id="link_RECV_CRC"><path d="M72.3,712.21 C80.58,730.4 90.5515,752.2904 97.4615,767.4504 " fill="none" id="RECV-to-CRC" style="stroke:#181818;stroke-width:1.0;"/><polygon fill="#181818" points="99.95,772.91,99.857,763.0616,97.8762,768.3603,92.5775,766.3796,99.95,772.91" style="stroke:#181818;stroke-width:1.0;"/></g><!--link CRC to PARSE--><g id="link_CRC_PARSE"><path d="M105,797.15 C105,815.8 105,847.47 105,869.94 " fill="none" id="CRC-to-PARSE" style="stroke:#181818;stroke-width:1.0;"/><polygon fill="#181818" points="105,875.94,109,866.94,105,870.94,101,866.94,105,875.94" style="stroke:#181818;stroke-width:1.0;"/><text fill="#000000" font-family="Microsoft YaHei" font-size="13" lengthAdjust="spacing" textLength="18.8462" x="106" y="841.7554">OK</text></g><!--link CRC to ALARM--><g id="link_CRC_ALARM"><path d="M120.07,797.15 C145.28,815.8 191.3861,849.9021 221.7661,872.3721 " fill="none" id="CRC-to-ALARM" style="stroke:#181818;stroke-width:1.0;"/><polygon fill="#181818" points="226.59,875.94,221.7328,867.3722,222.5701,872.9667,216.9755,873.8041,226.59,875.94" style="stroke:#181818;stroke-width:1.0;"/><text fill="#000000" font-family="Microsoft YaHei" font-size="13" lengthAdjust="spacing" textLength="26.5459" x="184" y="841.7554">FAIL</text></g><!--link PARSE to UPLOAD--><g id="link_PARSE_UPLOAD"><path d="M145.27,914.21 C185.47,932.4 240.4934,957.2769 274.0034,972.4369 " fill="none" id="PARSE-to-UPLOAD" style="stroke:#181818;stroke-width:1.0;"/><polygon fill="#181818" points="279.47,974.91,272.9188,967.5559,274.9145,972.8491,269.6214,974.8447,279.47,974.91" style="stroke:#181818;stroke-width:1.0;"/></g><!--link ALARM to UPLOAD--><g id="link_ALARM_UPLOAD"><path d="M261.73,914.21 C272.43,932.4 285.4948,954.5802 294.4248,969.7402 " fill="none" id="ALARM-to-UPLOAD" style="stroke:#181818;stroke-width:1.0;"/><polygon fill="#181818" points="297.47,974.91,296.3486,965.1252,294.9323,970.6019,289.4556,969.1855,297.47,974.91" style="stroke:#181818;stroke-width:1.0;"/></g><!--link UPLOAD to JSON--><g id="link_UPLOAD_JSON"><path d="M306.48,999.15 C310.62,1017.8 317.6868,1049.6132 322.6868,1072.0832 " fill="none" id="UPLOAD-to-JSON" style="stroke:#181818;stroke-width:1.0;"/><polygon fill="#181818" points="323.99,1077.94,325.9396,1068.286,322.904,1073.0594,318.1306,1070.0237,323.99,1077.94" style="stroke:#181818;stroke-width:1.0;"/><text fill="#000000" font-family="Microsoft YaHei" font-size="13" lengthAdjust="spacing" textLength="13" x="318" y="1043.7554">&#26159;</text></g><!--link JSON to W5500--><g id="link_JSON_W5500"><path d="M337.4,1116.24 C346.34,1133.59 356.9604,1154.1871 365.8904,1171.5071 " fill="none" id="JSON-to-W5500" style="stroke:#181818;stroke-width:1.0;"/><polygon fill="#181818" points="368.64,1176.84,368.0709,1167.0076,366.3487,1172.3959,360.9604,1170.6737,368.64,1176.84" style="stroke:#181818;stroke-width:1.0;"/></g><!--link W5500 to MAIN--><g id="link_W5500_MAIN"><path d="M393.77,1176.7 C408.1,1158.15 427,1128 427,1098 C427,339 427,339 427,339 C427,290.62 377.7849,260.4188 343.1849,244.5688 " fill="none" id="W5500-to-MAIN" style="stroke:#181818;stroke-width:1.0;"/><polygon fill="#181818" points="337.73,242.07,344.2464,249.4549,342.2757,244.1524,347.5782,242.1817,337.73,242.07" style="stroke:#181818;stroke-width:1.0;"/></g><!--link UPLOAD to MAIN--><g id="link_UPLOAD_MAIN"><path d="M315.54,974.97 C330.86,959.09 356,928.12 356,896 C356,339 356,339 356,339 C356,300.89 334.9111,265.7382 321.6711,246.9082 " fill="none" id="UPLOAD-to-MAIN" style="stroke:#181818;stroke-width:1.0;"/><polygon fill="#181818" points="318.22,242,320.1245,251.663,321.0959,246.0901,326.6687,247.0615,318.22,242" style="stroke:#181818;stroke-width:1.0;"/><text fill="#000000" font-family="Microsoft YaHei" font-size="13" lengthAdjust="spacing" textLength="13" x="357" y="639.7554">&#21542;</text></g><!--SRC=[LL9jJzDG5FxUNt4pFnAoJO8cH3JD65hTMxOYaf2GiXMiRBrBsuNu3Ot8wn0Ye2GgGnGKmmOnpaa5_qplRVSllFSKHjUafxtFyvnxptdEDMSqlQmOIWaLr2cbKhI6iMwbb9AAGaajRs0JJrbeJ7cWQY71x6WdbVpCj84hUY66YzX0DwRW2IZok5J6kgfREUjvKKM6chSKVRge1YJcKwM0PpLz6bb6HHKiN4OMHfFOiZ2hHkCf6jQ5Ygdc5PFLuxIMtSrVv4lLEQ-6a6AYd2ncPQ5p4WgHnO_aS8MiRe_hzpDIEZoIOuA-S2uZHSEoLbADs-7H_lv81BAbbCII5QF0TxR9nP6xrW0YAKgfuAvUmtP_sgwzIzyroUuPQEHeKD6UMw8htvtMYjEQS-mrzySEY3BfHAAhl3SRxRaNA8aBanKJUOtVzFGbQHsEwqFnmQZVKJmr5CnmZvV8nJnvMoLdco3pInyLfQw-Xv8YecjVwMQJr5VfuZg8il7OuwuY5wfUOykhxz6javuUNoAF1HMqjk3LJ_m6t0FRFVi7AZ4XPfENJiMoiUWjH6jxxQDL81dGvTNXFlsqpawWrJhvqoIlT-XfpJT3pERY7R-NdRyril6DVjWbYoVtG32IIQJ5xkxjLzx-F7gOIwT0mN-2_2oVvKIbNCHAOUAPYNNV78uAS3TGR-zTVyuym0g6omEiv2WQG9QMdncCHahcDSudnnZllEurFdVg503cFCo91rZ1E7Y05VUTvMQVfEB8QHtJxUC09u_nRPlpx2gXcn5-9eUkjcISFoLq1_Lr6F3_cXha53-3Szn-zlf5SuUPBlse0rsb3ejIGl1v3bzQxRC1mFy0mhrcYVHzGu1Vw1ESXNZjPI07x1j0PFtWFm00]--></g></svg>