<svg xmlns="http://www.w3.org/2000/svg" xmlns:xlink="http://www.w3.org/1999/xlink" contentStyleType="text/css" height="194px" preserveAspectRatio="none" style="width:345px;height:194px;background:#FFFFFF;" version="1.1" viewBox="0 0 345 194" width="345px" zoomAndPan="magnify"><defs/><g><!--entity gps--><g id="elem_gps"><rect fill="#D5E8D4" height="37.1577" rx="4" ry="4" style="stroke:#555555;stroke-width:0.5;" width="76.6782" x="7" y="7"/><text fill="#000000" font-family="Microsoft YaHei" font-size="13" lengthAdjust="spacing" textLength="56.6782" x="17" y="30.7554">GPS/&#32599;&#30424;</text></g><!--entity stm--><g id="elem_stm"><rect fill="#DAE8FC" height="37.1577" rx="4" ry="4" style="stroke:#555555;stroke-width:0.5;" width="62.9038" x="144" y="79"/><text fill="#000000" font-family="Microsoft YaHei" font-size="13" lengthAdjust="spacing" textLength="42.9038" x="154" y="102.7554">STM32</text></g><!--entity ult--><g id="elem_ult"><rect fill="#D5E8D4" height="37.1577" rx="4" ry="4" style="stroke:#555555;stroke-width:0.5;" width="59" x="16" y="79"/><text fill="#000000" font-family="Microsoft YaHei" font-size="13" lengthAdjust="spacing" textLength="39" x="26" y="102.7554">&#36229;&#22768;&#27874;</text></g><!--entity feed--><g id="elem_feed"><rect fill="#FFE6CC" height="37.1577" rx="4" ry="4" style="stroke:#555555;stroke-width:0.5;" width="72" x="267" y="43"/><text fill="#000000" font-family="Microsoft YaHei" font-size="13" lengthAdjust="spacing" textLength="52" x="277" y="66.7554">&#25237;&#39285;&#26426;&#26500;</text></g><!--entity w--><g id="elem_w"><rect fill="#D5E8D4" height="37.1577" rx="4" ry="4" style="stroke:#555555;stroke-width:0.5;" width="46" x="22.5" y="151"/><text fill="#000000" font-family="Microsoft YaHei" font-size="13" lengthAdjust="spacing" textLength="26" x="32.5" y="174.7554">&#27700;&#36136;</text></g><!--entity g--><g id="elem_g"><rect fill="#FFF2CC" height="37.1577" rx="4" ry="4" style="stroke:#555555;stroke-width:0.5;" width="37.291" x="284.5" y="115"/><text fill="#000000" font-family="Microsoft YaHei" font-size="13" lengthAdjust="spacing" textLength="17.291" x="294.5" y="138.7554">4G</text></g><!--link gps to stm--><g id="link_gps_stm"><path d="M79.46,44.04 C99.31,55.21 119.1906,66.3883 138.6206,77.3183 " fill="none" id="gps-to-stm" style="stroke:#333333;stroke-width:1.0;"/><polygon fill="#333333" points="143.85,80.26,137.9671,72.3612,139.4922,77.8086,134.0448,79.3337,143.85,80.26" style="stroke:#333333;stroke-width:1.0;"/></g><!--link ult to stm--><g id="link_ult_stm"><path d="M75.23,97.5 C95.57,97.5 116.83,97.5 137.63,97.5 " fill="none" id="ult-to-stm" style="stroke:#333333;stroke-width:1.0;"/><polygon fill="#333333" points="143.63,97.5,134.63,93.5,138.63,97.5,134.63,101.5,143.63,97.5" style="stroke:#333333;stroke-width:1.0;"/></g><!--link stm to feed--><g id="link_stm_feed"><path d="M207.2,88.69 C225.2,83.53 242.2324,78.6436 260.9624,73.2736 " fill="none" id="stm-to-feed" style="stroke:#333333;stroke-width:1.0;"/><polygon fill="#333333" points="266.73,71.62,256.9761,70.2553,261.9236,72.998,259.181,77.9455,266.73,71.62" style="stroke:#333333;stroke-width:1.0;"/></g><!--link w to stm--><g id="link_w_stm"><path d="M68.5,157.12 C89.23,145.46 115.25,130.8206 138.46,117.7706 " fill="none" id="w-to-stm" style="stroke:#333333;stroke-width:1.0;"/><polygon fill="#333333" points="143.69,114.83,133.8846,115.7542,139.3317,117.2805,137.8054,122.7276,143.69,114.83" style="stroke:#333333;stroke-width:1.0;"/></g><!--link stm to g--><g id="link_stm_g"><path d="M207.2,106.31 C231.44,113.26 258.6333,121.0533 278.6133,126.7933 " fill="none" id="stm-to-g" style="stroke:#333333;stroke-width:1.0;"/><polygon fill="#333333" points="284.38,128.45,276.8344,122.1204,279.5744,127.0694,274.6254,129.8094,284.38,128.45" style="stroke:#333333;stroke-width:1.0;"/></g><!--SRC=[RP11IyD048Nl-HL3UYxIff6SF5YmNYfYl7XSihDnCTafkri2dlNYNHGK3uhWiM3r8FXpJEk_C1krHirjcFVDUuynHr9Dc6OvS1HicjajKdQ7vGZ-M2QQ30aB1smRfU-P5QiniKob6UxHLF4XQOKQeZPWapH7FQICD7J2C6nZN6GiZn5wGKDcMbFn8_N-Ib-UGH1u6LObBO6MwQ45Bfsp9EMj4i0VxSPhYzUBnTMb3yn0EZ7GuI56VD2aulrnqAy1O_CAO1Y9f0aidq_VxcRbusqDLUzgSodFpj_ldyhhb_BcfEO48eUE4BYU_78hP_Fb_A56YZQZmUYphBiL_UhMrUvsDrmxpuL_pwwjcrsGL_nRfny0]--></g></svg>