<svg xmlns="http://www.w3.org/2000/svg" xmlns:xlink="http://www.w3.org/1999/xlink" contentStyleType="text/css" height="122px" preserveAspectRatio="none" style="width:495px;height:122px;background:#FFFFFF;" version="1.1" viewBox="0 0 495 122" width="495px" zoomAndPan="magnify"><defs/><g><!--entity nav--><g id="elem_nav"><rect fill="#D5E8D4" height="37.1577" rx="4" ry="4" style="stroke:#555555;stroke-width:0.5;" width="77.5542" x="7" y="43"/><text fill="#000000" font-family="Microsoft YaHei" font-size="13" lengthAdjust="spacing" textLength="57.5542" x="17" y="66.7554">&#35270;&#35273;/&#23548;&#33322;</text></g><!--entity pi--><g id="elem_pi"><rect fill="#DAE8FC" height="37.1577" rx="4" ry="4" style="stroke:#555555;stroke-width:0.5;" width="59" x="145" y="43"/><text fill="#000000" font-family="Microsoft YaHei" font-size="13" lengthAdjust="spacing" textLength="39" x="155" y="66.7554">&#26641;&#33683;&#27966;</text></g><!--entity stm--><g id="elem_stm"><rect fill="#DAE8FC" height="37.1577" rx="4" ry="4" style="stroke:#555555;stroke-width:0.5;" width="92.7505" x="264" y="43"/><text fill="#000000" font-family="Microsoft YaHei" font-size="13" lengthAdjust="spacing" textLength="72.7505" x="274" y="66.7554">STM32 &#24213;&#30424;</text></g><!--entity lift--><g id="elem_lift"><rect fill="#FFE6CC" height="37.1577" rx="4" ry="4" style="stroke:#555555;stroke-width:0.5;" width="72" x="417" y="7"/><text fill="#000000" font-family="Microsoft YaHei" font-size="13" lengthAdjust="spacing" textLength="52" x="427" y="30.7554">&#21319;&#38477;&#22841;&#21462;</text></g><!--entity wifi--><g id="elem_wifi"><rect fill="#FFF2CC" height="37.1577" rx="4" ry="4" style="stroke:#555555;stroke-width:0.5;" width="47.0537" x="429.5" y="79"/><text fill="#000000" font-family="Microsoft YaHei" font-size="13" lengthAdjust="spacing" textLength="27.0537" x="439.5" y="102.7554">WiFi</text></g><!--link nav to pi--><g id="link_nav_pi"><path d="M85.3,61.5 C104.5,61.5 121.35,61.5 138.98,61.5 " fill="none" id="nav-to-pi" style="stroke:#333333;stroke-width:1.0;"/><polygon fill="#333333" points="144.98,61.5,135.98,57.5,139.98,61.5,135.98,65.5,144.98,61.5" style="stroke:#333333;stroke-width:1.0;"/></g><!--link pi to stm--><g id="link_pi_stm"><path d="M204.25,61.5 C221.63,61.5 238.17,61.5 257.93,61.5 " fill="none" id="pi-to-stm" style="stroke:#333333;stroke-width:1.0;"/><polygon fill="#333333" points="263.93,61.5,254.93,57.5,258.93,61.5,254.93,65.5,263.93,61.5" style="stroke:#333333;stroke-width:1.0;"/></g><!--link stm to lift--><g id="link_stm_lift"><path d="M357.12,49.81 C376.51,44.84 392.9474,40.6277 411.0374,35.9977 " fill="none" id="stm-to-lift" style="stroke:#333333;stroke-width:1.0;"/><polygon fill="#333333" points="416.85,34.51,407.1392,32.8665,412.0061,35.7498,409.1228,40.6166,416.85,34.51" style="stroke:#333333;stroke-width:1.0;"/></g><!--link stm to wifi--><g id="link_stm_wifi"><path d="M357.12,73.19 C381.31,79.39 404.1677,85.241 423.6077,90.221 " fill="none" id="stm-to-wifi" style="stroke:#333333;stroke-width:1.0;"/><polygon fill="#333333" points="429.42,91.71,421.6942,85.6017,424.5764,90.4692,419.7089,93.3514,429.42,91.71" style="stroke:#333333;stroke-width:1.0;"/></g><!--SRC=[RSw_IiH040RmFayn9FKXTp6IoiA3m-OiF44ib-piEPZi7fiz3tm0_nIdY2YAZOLmO6DZeuXlapE-XRj1OfHqiynlv_lo0v8Jfba670MRfcQWfDbY6O8_f4IhN0a3UsmJoVVoscfC39FZ5BVLLFA-qX8rn6rWGscEkgzIfI68egZDkCWH7I5qmyQQQQrclwlk_zNFpJ0ClHHjIQD0qtZV02TtcPJqwWJmoyLnkJXRAPxVozCd7rWEaXr2m2EC-MeJBXyko_EhvSj7XIPa3SDO94qpsXc6FIZUhZ_lRokMcwpD5VEJhxjvyVXQNDnKBYLRD102rv8_S9S6L84P2N90z2nm3JkTTLl2iptSP7Cyb-LcTwj-k7_V]--></g></svg>