<svg xmlns="http://www.w3.org/2000/svg" xmlns:xlink="http://www.w3.org/1999/xlink" contentStyleType="text/css" height="122px" preserveAspectRatio="none" style="width:577px;height:122px;background:#FFFFFF;" version="1.1" viewBox="0 0 577 122" width="577px" zoomAndPan="magnify"><defs/><g><!--entity cam--><g id="elem_cam"><rect fill="#D5E8D4" height="37.1577" rx="4" ry="4" style="stroke:#555555;stroke-width:0.5;" width="72" x="7" y="7"/><text fill="#000000" font-family="Microsoft YaHei" font-size="13" lengthAdjust="spacing" textLength="52" x="17" y="30.7554">&#26465;&#30721;&#30456;&#26426;</text></g><!--entity pi--><g id="elem_pi"><rect fill="#DAE8FC" height="37.1577" rx="4" ry="4" style="stroke:#555555;stroke-width:0.5;" width="59" x="139" y="7"/><text fill="#000000" font-family="Microsoft YaHei" font-size="13" lengthAdjust="spacing" textLength="39" x="149" y="30.7554">&#26641;&#33683;&#27966;</text></g><!--entity stm--><g id="elem_stm"><rect fill="#DAE8FC" height="37.1577" rx="4" ry="4" style="stroke:#555555;stroke-width:0.5;" width="92.7505" x="258" y="43"/><text fill="#000000" font-family="Microsoft YaHei" font-size="13" lengthAdjust="spacing" textLength="72.7505" x="268" y="66.7554">STM32 &#24213;&#30424;</text></g><!--entity w--><g id="elem_w"><rect fill="#D5E8D4" height="37.1577" rx="4" ry="4" style="stroke:#555555;stroke-width:0.5;" width="46" x="145.5" y="79"/><text fill="#000000" font-family="Microsoft YaHei" font-size="13" lengthAdjust="spacing" textLength="26" x="155.5" y="102.7554">&#31216;&#37325;</text></g><!--entity net--><g id="elem_net"><rect fill="#FFF2CC" height="37.1577" rx="4" ry="4" style="stroke:#555555;stroke-width:0.5;" width="47.0537" x="411" y="43"/><text fill="#000000" font-family="Microsoft YaHei" font-size="13" lengthAdjust="spacing" textLength="27.0537" x="421" y="66.7554">WiFi</text></g><!--entity cloud--><g id="elem_cloud"><rect fill="#E1D5E8" height="37.1577" rx="4" ry="4" style="stroke:#555555;stroke-width:0.5;" width="53.4331" x="518" y="43"/><text fill="#000000" font-family="Microsoft YaHei" font-size="13" lengthAdjust="spacing" textLength="33.4331" x="528" y="66.7554">WMS</text></g><!--link cam to pi--><g id="link_cam_pi"><path d="M79.06,25.5 C97.89,25.5 114.81,25.5 132.6,25.5 " fill="none" id="cam-to-pi" style="stroke:#333333;stroke-width:1.0;"/><polygon fill="#333333" points="138.6,25.5,129.6,21.5,133.6,25.5,129.6,29.5,138.6,25.5" style="stroke:#333333;stroke-width:1.0;"/></g><!--link pi to stm--><g id="link_pi_stm"><path d="M198.25,33.22 C215.63,37.89 232.3756,42.3929 252.1356,47.7029 " fill="none" id="pi-to-stm" style="stroke:#333333;stroke-width:1.0;"/><polygon fill="#333333" points="257.93,49.26,250.2764,43.0614,253.1013,47.9624,248.2003,50.7873,257.93,49.26" style="stroke:#333333;stroke-width:1.0;"/></g><!--link w to stm--><g id="link_w_stm"><path d="M191.63,91.56 C209.62,86.72 229.795,81.2948 252.195,75.2848 " fill="none" id="w-to-stm" style="stroke:#333333;stroke-width:1.0;"/><polygon fill="#333333" points="257.99,73.73,248.2609,72.1989,253.1608,75.0257,250.334,79.9256,257.99,73.73" style="stroke:#333333;stroke-width:1.0;"/></g><!--link stm to net--><g id="link_stm_net"><path d="M351.35,61.5 C371.58,61.5 388.45,61.5 404.91,61.5 " fill="none" id="stm-to-net" style="stroke:#333333;stroke-width:1.0;"/><polygon fill="#333333" points="410.91,61.5,401.91,57.5,405.91,61.5,401.91,65.5,410.91,61.5" style="stroke:#333333;stroke-width:1.0;"/></g><!--link net to cloud--><g id="link_net_cloud"><path d="M458.14,61.5 C475.58,61.5 493.71,61.5 511.86,61.5 " fill="none" id="net-to-cloud" style="stroke:#333333;stroke-width:1.0;"/><polygon fill="#333333" points="517.86,61.5,508.86,57.5,512.86,61.5,508.86,65.5,517.86,61.5" style="stroke:#333333;stroke-width:1.0;"/></g><!--SRC=[ROunIyD068Rt-nKVoTmXZO5C3XQAInoCK1oFt7VrQ79NBXS2RavE2YA2K8KwkJeuI0V_ZOd-2- -Yn5QolV0-t_EzvKB89TMq08QSLhcPAccEQ87W9IBJgbJSm2azHE6HicSrPeRAUOx7gf9iehH43V4GSA0qGprHkTBWHr4qnBYNgJX72CAjccgjwhyg-5_zEiCm93dQaKQ15lCp0qmuir2Iz1_0QnwVslL5ktfh7ZOUq18ow_5PX37Rs-7MDv_NjythUmSjXMKenZpRPjAJ91p3n-QkNTrtM6cA8QvzVlcwlEg8UkZNJ4n5rqequ7FEnzdE_In9VwRcgcBWO-0Kn0qVZVRjDcBdkMJVaxfFRepBLagSsENEy0q0]--></g></svg>