<svg xmlns="http://www.w3.org/2000/svg" xmlns:xlink="http://www.w3.org/1999/xlink" contentStyleType="text/css" height="385px" preserveAspectRatio="none" style="width:190px;height:385px;background:#FFFFFF;" version="1.1" viewBox="0 0 190 385" width="190px" zoomAndPan="magnify"><defs/><g><!--entity node--><g id="elem_node"><rect fill="#F1F1F1" height="56.9551" rx="2.5" ry="2.5" style="stroke:#181818;stroke-width:0.5;" width="177.9785" x="7" y="7"/><text fill="#000000" font-family="Microsoft YaHei" font-size="14" lengthAdjust="spacing" textLength="72.9053" x="17" y="31.8135">ESP32 &#33410;&#28857;</text><text fill="#000000" font-family="Microsoft YaHei" font-size="14" lengthAdjust="spacing" textLength="157.9785" x="17" y="50.291">&#28201;&#28287;&#24230;/PM2.5/&#22122;&#22768;/&#20154;&#27969;</text></g><!--entity mqtt--><g id="elem_mqtt"><rect fill="#F1F1F1" height="38.4775" rx="2.5" ry="2.5" style="stroke:#181818;stroke-width:0.5;" width="107.2813" x="42.5" y="143"/><text fill="#000000" font-family="Microsoft YaHei" font-size="14" lengthAdjust="spacing" textLength="87.2813" x="52.5" y="167.8135">MQTT &#26381;&#21153;&#22120;</text></g><!--entity db--><g id="elem_db"><rect fill="#F1F1F1" height="38.4775" rx="2.5" ry="2.5" style="stroke:#181818;stroke-width:0.5;" width="122.6348" x="34.5" y="242"/><text fill="#000000" font-family="Microsoft YaHei" font-size="14" lengthAdjust="spacing" textLength="102.6348" x="44.5" y="266.8135">InfluxDB &#26102;&#24207;&#24211;</text></g><!--entity graf--><g id="elem_graf"><rect fill="#F1F1F1" height="38.4775" rx="2.5" ry="2.5" style="stroke:#181818;stroke-width:0.5;" width="118.5947" x="36.5" y="341"/><text fill="#000000" font-family="Microsoft YaHei" font-size="14" lengthAdjust="spacing" textLength="98.5947" x="46.5" y="365.8135">Grafana &#21487;&#35270;&#21270;</text></g><!--link node to mqtt--><g id="link_node_mqtt"><path d="M96,64.13 C96,88.06 96,115.99 96,136.69 " fill="none" id="node-to-mqtt" style="stroke:#181818;stroke-width:1.0;"/><polygon fill="#181818" points="96,142.69,100,133.69,96,137.69,92,133.69,96,142.69" style="stroke:#181818;stroke-width:1.0;"/><text fill="#000000" font-family="Microsoft YaHei" font-size="13" lengthAdjust="spacing" textLength="70.8081" x="97" y="108.7554">WiFi/MQTT</text></g><!--link mqtt to db--><g id="link_mqtt_db"><path d="M96,181.24 C96,198.59 96,218.52 96,235.84 " fill="none" id="mqtt-to-db" style="stroke:#181818;stroke-width:1.0;"/><polygon fill="#181818" points="96,241.84,100,232.84,96,236.84,92,232.84,96,241.84" style="stroke:#181818;stroke-width:1.0;"/></g><!--link db to graf--><g id="link_db_graf"><path d="M96,280.24 C96,297.59 96,317.52 96,334.84 " fill="none" id="db-to-graf" style="stroke:#181818;stroke-width:1.0;"/><polygon fill="#181818" points="96,340.84,100,331.84,96,335.84,92,331.84,96,340.84" style="stroke:#181818;stroke-width:1.0;"/></g><!--SRC=[AyxEp2j8B4hCLKX9JKiipIbnoyyhyKlCJLLGyirCBielpayhKOXCz4ZDLE8gIaqkISnBpm7AkGO761iflEXgUjwqCoRlsOwLptRkVxfhcNw0hv6UgVxJcQkUBjwW_sJNhcTR6vKK4eiLyl9JKf7r-mQ6X2WyczFxj6lXqvahm4fo2qjAa9LuvgNbb5QuE2aycxxjwQx-fxicWvMb924hSYzAJ4lCIrHush_-nVAsfptJm6hIWQ9S82iLT7Njm0OhM2c4PxfbweFivG8BW6I0PgKaWLaW7G00]--></g></svg>