<svg xmlns="http://www.w3.org/2000/svg" xmlns:xlink="http://www.w3.org/1999/xlink" contentStyleType="text/css" height="537px" preserveAspectRatio="none" style="width:192px;height:537px;background:#FFFFFF;" version="1.1" viewBox="0 0 192 537" width="192px" zoomAndPan="magnify"><defs/><g><!--entity n0--><g id="elem_n0"><rect fill="#F1F1F1" height="56.9551" rx="2.5" ry="2.5" style="stroke:#181818;stroke-width:0.5;" width="113.0781" x="40.5" y="7"/><text fill="#000000" font-family="Microsoft YaHei" font-size="14" lengthAdjust="spacing" textLength="32.6963" x="50.5" y="31.8135">MPU</text><text fill="#000000" font-family="Microsoft YaHei" font-size="14" lengthAdjust="spacing" textLength="93.0781" x="50.5" y="50.291">STM32MP157</text></g><!--entity n1--><g id="elem_n1"><rect fill="#F1F1F1" height="56.9551" rx="2.5" ry="2.5" style="stroke:#181818;stroke-width:0.5;" width="101.8193" x="46" y="124"/><text fill="#000000" font-family="Microsoft YaHei" font-size="14" lengthAdjust="spacing" textLength="42" x="56" y="148.8135">&#40614;&#20811;&#39118;</text><text fill="#000000" font-family="Microsoft YaHei" font-size="14" lengthAdjust="spacing" textLength="81.8193" x="56" y="167.291">INMP441 x3</text></g><!--entity n2--><g id="elem_n2"><rect fill="#F1F1F1" height="56.9551" rx="2.5" ry="2.5" style="stroke:#181818;stroke-width:0.5;" width="157.7168" x="18" y="241"/><text fill="#000000" font-family="Microsoft YaHei" font-size="14" lengthAdjust="spacing" textLength="28" x="28" y="265.8135">&#35270;&#35273;</text><text fill="#000000" font-family="Microsoft YaHei" font-size="14" lengthAdjust="spacing" textLength="137.7168" x="28" y="284.291">OV5640&#21442;&#20250;&#20154;&#33080;&#35782;&#21035;</text></g><!--entity n3--><g id="elem_n3"><rect fill="#F1F1F1" height="56.9551" rx="2.5" ry="2.5" style="stroke:#181818;stroke-width:0.5;" width="73.1016" x="60.5" y="358"/><text fill="#000000" font-family="Microsoft YaHei" font-size="14" lengthAdjust="spacing" textLength="14.5674" x="70.5" y="382.8135">UI</text><text fill="#000000" font-family="Microsoft YaHei" font-size="14" lengthAdjust="spacing" textLength="53.1016" x="70.5" y="401.291">3.5"LCD</text></g><!--entity n4--><g id="elem_n4"><rect fill="#F1F1F1" height="56.9551" rx="2.5" ry="2.5" style="stroke:#181818;stroke-width:0.5;" width="179.9883" x="7" y="475"/><text fill="#000000" font-family="Microsoft YaHei" font-size="14" lengthAdjust="spacing" textLength="13.9658" x="17" y="499.8135">AI</text><text fill="#000000" font-family="Microsoft YaHei" font-size="14" lengthAdjust="spacing" textLength="159.9883" x="17" y="518.291">TinyML KWS/&#20113;&#31471;&#22823;&#27169;&#22411;</text></g><!--link n0 to n1--><g id="link_n0_n1"><path d="M97,64.05 C97,82.12 97,99.67 97,117.78 " fill="none" id="n0-to-n1" style="stroke:#181818;stroke-width:1.0;"/><polygon fill="#181818" points="97,123.78,101,114.78,97,118.78,93,114.78,97,123.78" style="stroke:#181818;stroke-width:1.0;"/></g><!--link n1 to n2--><g id="link_n1_n2"><path d="M97,181.05 C97,199.12 97,216.67 97,234.78 " fill="none" id="n1-to-n2" style="stroke:#181818;stroke-width:1.0;"/><polygon fill="#181818" points="97,240.78,101,231.78,97,235.78,93,231.78,97,240.78" style="stroke:#181818;stroke-width:1.0;"/></g><!--link n2 to n3--><g id="link_n2_n3"><path d="M97,298.05 C97,316.12 97,333.67 97,351.78 " fill="none" id="n2-to-n3" style="stroke:#181818;stroke-width:1.0;"/><polygon fill="#181818" points="97,357.78,101,348.78,97,352.78,93,348.78,97,357.78" style="stroke:#181818;stroke-width:1.0;"/></g><!--link n3 to n4--><g id="link_n3_n4"><path d="M97,415.05 C97,433.12 97,450.67 97,468.78 " fill="none" id="n3-to-n4" style="stroke:#181818;stroke-width:1.0;"/><polygon fill="#181818" points="97,474.78,101,465.78,97,469.78,93,465.78,97,474.78" style="stroke:#181818;stroke-width:1.0;"/></g><!--SRC=[AyxEp2j8B4hCLKX9JKiipIbnoyyhyKlCJLLGyirCBielpayhKOXCz4ZDLE8gIaqkISnBpm791OJ6v0M7-1eR-GOOcfehAIGMA-GP8AjukMlPqzRkbulxOl8y_Nm3J4mC5IgC8UeCaTMzMDxsOdbdJ9v_cAcPYS7J_gOdUsOzsRNhHSkE5-lRddQiXcWnGjOIwXcJPwndgkJZx0AHDKQMTGJAXcJcLVhwA7Y71-i_sJNn-UhrJvSiVxPYuTDvtH0D9bnv1WgwkdOWj-GPGbX6N7b649OnLvunX6K20000]--></g></svg>