<svg xmlns="http://www.w3.org/2000/svg" xmlns:xlink="http://www.w3.org/1999/xlink" contentStyleType="text/css" height="194px" preserveAspectRatio="none" style="width:336px;height:194px;background:#FFFFFF;" version="1.1" viewBox="0 0 336 194" width="336px" zoomAndPan="magnify"><defs/><g><!--entity imu--><g id="elem_imu"><rect fill="#D5E8D4" height="37.1577" rx="4" ry="4" style="stroke:#555555;stroke-width:0.5;" width="76.0752" x="7" y="79"/><text fill="#000000" font-family="Microsoft YaHei" font-size="13" lengthAdjust="spacing" textLength="56.0752" x="17" y="102.7554">&#23039;&#24577; IMU</text></g><!--entity stm--><g id="elem_stm"><rect fill="#DAE8FC" height="37.1577" rx="4" ry="4" style="stroke:#555555;stroke-width:0.5;" width="62.9038" x="143" y="79"/><text fill="#000000" font-family="Microsoft YaHei" font-size="13" lengthAdjust="spacing" textLength="42.9038" x="153" y="102.7554">STM32</text></g><!--entity motor--><g id="elem_motor"><rect fill="#FFE6CC" height="37.1577" rx="4" ry="4" style="stroke:#555555;stroke-width:0.5;" width="64.5542" x="266" y="7"/><text fill="#000000" font-family="Microsoft YaHei" font-size="13" lengthAdjust="spacing" textLength="44.5542" x="276" y="30.7554">&#24213;&#30424;/&#33218;</text></g><!--entity spray--><g id="elem_spray"><rect fill="#FFE6CC" height="37.1577" rx="4" ry="4" style="stroke:#555555;stroke-width:0.5;" width="46" x="275.5" y="79"/><text fill="#000000" font-family="Microsoft YaHei" font-size="13" lengthAdjust="spacing" textLength="26" x="285.5" y="102.7554">&#21943;&#38654;</text></g><!--entity g--><g id="elem_g"><rect fill="#FFF2CC" height="37.1577" rx="4" ry="4" style="stroke:#555555;stroke-width:0.5;" width="37.291" x="280" y="151"/><text fill="#000000" font-family="Microsoft YaHei" font-size="13" lengthAdjust="spacing" textLength="17.291" x="290" y="174.7554">4G</text></g><!--link imu to stm--><g id="link_imu_stm"><path d="M83.22,97.5 C102.18,97.5 118.96,97.5 136.89,97.5 " fill="none" id="imu-to-stm" style="stroke:#333333;stroke-width:1.0;"/><polygon fill="#333333" points="142.89,97.5,133.89,93.5,137.89,97.5,133.89,101.5,142.89,97.5" style="stroke:#333333;stroke-width:1.0;"/></g><!--link stm to motor--><g id="link_stm_motor"><path d="M206.29,79.33 C224.5,68.58 242.354,58.0517 260.704,47.2117 " fill="none" id="stm-to-motor" style="stroke:#333333;stroke-width:1.0;"/><polygon fill="#333333" points="265.87,44.16,256.0866,45.2936,261.565,46.7031,260.1555,52.1815,265.87,44.16" style="stroke:#333333;stroke-width:1.0;"/></g><!--link stm to spray--><g id="link_stm_spray"><path d="M206.29,97.5 C227.74,97.5 249.88,97.5 269.19,97.5 " fill="none" id="stm-to-spray" style="stroke:#333333;stroke-width:1.0;"/><polygon fill="#333333" points="275.19,97.5,266.19,93.5,270.19,97.5,266.19,101.5,275.19,97.5" style="stroke:#333333;stroke-width:1.0;"/></g><!--link stm to g--><g id="link_stm_g"><path d="M206.29,115.67 C229.58,129.42 255.5731,144.7499 274.7831,156.0899 " fill="none" id="stm-to-g" style="stroke:#333333;stroke-width:1.0;"/><polygon fill="#333333" points="279.95,159.14,274.2331,151.1202,275.6443,156.5982,270.1662,158.0094,279.95,159.14" style="stroke:#333333;stroke-width:1.0;"/></g><!--SRC=[ROuzJiD048LxdsBar15A72DN54JYfp05WO9ovPqrgtXtejcr45H0mmb0I3a0Hq2YWDFmTmky1Za9SZUZxzDxpysrNGWM1YGgKLT-Zwm_4WOXpdN1v4XvE1C7gEF8TIvZuOKjApocsiefiKM6h4_O9PR8Kwg8OP2cQPyJAcVw2c6Kh671J1ShDFgF_ZAJ98agR4Pw0jRbkGUfGx8c6tKD4By_lNrSty1XVXg3SA1D3GEPOYOdwzRi94_6hU2yQGI1cIesObxkFvUFMrztjwrbo8SDIk5siUazF7ylNt-J5Ymk-vp9VilBmDIuOM7KSBWJkgFG7-wseVlQhEuhVm00]--></g></svg>