<svg xmlns="http://www.w3.org/2000/svg" xmlns:xlink="http://www.w3.org/1999/xlink" contentStyleType="text/css" height="654px" preserveAspectRatio="none" style="width:134px;height:654px;background:#FFFFFF;" version="1.1" viewBox="0 0 134 654" width="134px" zoomAndPan="magnify"><defs/><g><!--entity n0--><g id="elem_n0"><rect fill="#F1F1F1" height="56.9551" rx="2.5" ry="2.5" style="stroke:#181818;stroke-width:0.5;" width="98.2715" x="19" y="7"/><text fill="#000000" font-family="Microsoft YaHei" font-size="14" lengthAdjust="spacing" textLength="56" x="29" y="31.8135">&#36793;&#32536;&#32593;&#20851;</text><text fill="#000000" font-family="Microsoft YaHei" font-size="14" lengthAdjust="spacing" textLength="78.2715" x="29" y="50.291">STM32F103</text></g><!--entity n1--><g id="elem_n1"><rect fill="#F1F1F1" height="56.9551" rx="2.5" ry="2.5" style="stroke:#181818;stroke-width:0.5;" width="121.5752" x="7" y="124"/><text fill="#000000" font-family="Microsoft YaHei" font-size="14" lengthAdjust="spacing" textLength="56" x="17" y="148.8135">&#29616;&#22330;&#24635;&#32447;</text><text fill="#000000" font-family="Microsoft YaHei" font-size="14" lengthAdjust="spacing" textLength="101.5752" x="17" y="167.291">RS485 Modbus</text></g><!--entity n2--><g id="elem_n2"><rect fill="#F1F1F1" height="56.9551" rx="2.5" ry="2.5" style="stroke:#181818;stroke-width:0.5;" width="64.4199" x="36" y="241"/><text fill="#000000" font-family="Microsoft YaHei" font-size="14" lengthAdjust="spacing" textLength="42.834" x="46" y="265.8135">DI/DO</text><text fill="#000000" font-family="Microsoft YaHei" font-size="14" lengthAdjust="spacing" textLength="44.4199" x="46" y="284.291">8&#20837;4&#20986;</text></g><!--entity n3--><g id="elem_n3"><rect fill="#F1F1F1" height="56.9551" rx="2.5" ry="2.5" style="stroke:#181818;stroke-width:0.5;" width="113.8301" x="11" y="358"/><text fill="#000000" font-family="Microsoft YaHei" font-size="14" lengthAdjust="spacing" textLength="28" x="21" y="382.8135">&#36890;&#20449;</text><text fill="#000000" font-family="Microsoft YaHei" font-size="14" lengthAdjust="spacing" textLength="93.8301" x="21" y="401.291">W5500/ESP32</text></g><!--entity n4--><g id="elem_n4"><rect fill="#F1F1F1" height="56.9551" rx="2.5" ry="2.5" style="stroke:#181818;stroke-width:0.5;" width="108.7441" x="13.5" y="475"/><text fill="#000000" font-family="Microsoft YaHei" font-size="14" lengthAdjust="spacing" textLength="28" x="23.5" y="499.8135">&#23384;&#20648;</text><text fill="#000000" font-family="Microsoft YaHei" font-size="14" lengthAdjust="spacing" textLength="88.7441" x="23.5" y="518.291">SD&#21345;&#31163;&#32447;&#32531;&#23384;</text></g><!--entity n5--><g id="elem_n5"><rect fill="#F1F1F1" height="56.9551" rx="2.5" ry="2.5" style="stroke:#181818;stroke-width:0.5;" width="77.4561" x="29.5" y="592"/><text fill="#000000" font-family="Microsoft YaHei" font-size="14" lengthAdjust="spacing" textLength="28" x="39.5" y="616.8135">&#24179;&#21488;</text><text fill="#000000" font-family="Microsoft YaHei" font-size="14" lengthAdjust="spacing" textLength="57.4561" x="39.5" y="635.291">&#24037;&#21378;MES</text></g><!--link n0 to n1--><g id="link_n0_n1"><path d="M68,64.05 C68,82.12 68,99.67 68,117.78 " fill="none" id="n0-to-n1" style="stroke:#181818;stroke-width:1.0;"/><polygon fill="#181818" points="68,123.78,72,114.78,68,118.78,64,114.78,68,123.78" style="stroke:#181818;stroke-width:1.0;"/></g><!--link n1 to n2--><g id="link_n1_n2"><path d="M68,181.05 C68,199.12 68,216.67 68,234.78 " fill="none" id="n1-to-n2" style="stroke:#181818;stroke-width:1.0;"/><polygon fill="#181818" points="68,240.78,72,231.78,68,235.78,64,231.78,68,240.78" style="stroke:#181818;stroke-width:1.0;"/></g><!--link n2 to n3--><g id="link_n2_n3"><path d="M68,298.05 C68,316.12 68,333.67 68,351.78 " fill="none" id="n2-to-n3" style="stroke:#181818;stroke-width:1.0;"/><polygon fill="#181818" points="68,357.78,72,348.78,68,352.78,64,348.78,68,357.78" style="stroke:#181818;stroke-width:1.0;"/></g><!--link n3 to n4--><g id="link_n3_n4"><path d="M68,415.05 C68,433.12 68,450.67 68,468.78 " fill="none" id="n3-to-n4" style="stroke:#181818;stroke-width:1.0;"/><polygon fill="#181818" points="68,474.78,72,465.78,68,469.78,64,465.78,68,474.78" style="stroke:#181818;stroke-width:1.0;"/></g><!--link n4 to n5--><g id="link_n4_n5"><path d="M68,532.05 C68,550.12 68,567.67 68,585.78 " fill="none" id="n4-to-n5" style="stroke:#181818;stroke-width:1.0;"/><polygon fill="#181818" points="68,591.78,72,582.78,68,586.78,64,582.78,68,591.78" style="stroke:#181818;stroke-width:1.0;"/></g><!--SRC=[AyxEp2j8B4hCLKX9JKiipIbnoyyhyKlCJLLGyirCBielpayhKOXCz4ZDLE8gIaqkISnBpm7AlTYty_cU6S_tJdpQkZacBpZ4rzZ8pT30M4aXiLWXpm1PvVE-3K_dx7hMiFlvhlqnUK719XQc2hxvAKcbnH35XiYANJprNVnZyYoUjYurUTg-2wB225d5ouPPJ_OlZCaBDpKrCD1t3GumDeAeCaPMzNJjZATDAu0EStdQk_3vCf3Tp_TC1ef2r9gWgDsv-Md_XfYyfzkNFkrhydKDXgWnvSepKD3LjGEvCCyGmZBYoZE2i8ovyemXB1EkF1C8onG0]--></g></svg>