<svg xmlns="http://www.w3.org/2000/svg" xmlns:xlink="http://www.w3.org/1999/xlink" contentStyleType="text/css" height="888px" preserveAspectRatio="none" style="width:126px;height:888px;background:#FFFFFF;" version="1.1" viewBox="0 0 126 888" width="126px" zoomAndPan="magnify"><defs/><g><!--entity n0--><g id="elem_n0"><rect fill="#F1F1F1" height="56.9551" rx="2.5" ry="2.5" style="stroke:#181818;stroke-width:0.5;" width="113.0781" x="7" y="7"/><text fill="#000000" font-family="Microsoft YaHei" font-size="14" lengthAdjust="spacing" textLength="32.6963" x="17" y="31.8135">MPU</text><text fill="#000000" font-family="Microsoft YaHei" font-size="14" lengthAdjust="spacing" textLength="93.0781" x="17" y="50.291">STM32MP157</text></g><!--entity n1--><g id="elem_n1"><rect fill="#F1F1F1" height="56.9551" rx="2.5" ry="2.5" style="stroke:#181818;stroke-width:0.5;" width="73.7168" x="26.5" y="124"/><text fill="#000000" font-family="Microsoft YaHei" font-size="14" lengthAdjust="spacing" textLength="28" x="36.5" y="148.8135">&#30456;&#26426;</text><text fill="#000000" font-family="Microsoft YaHei" font-size="14" lengthAdjust="spacing" textLength="53.7168" x="36.5" y="167.291">OV5640</text></g><!--entity n2--><g id="elem_n2"><rect fill="#F1F1F1" height="56.9551" rx="2.5" ry="2.5" style="stroke:#181818;stroke-width:0.5;" width="90.9434" x="18" y="241"/><text fill="#000000" font-family="Microsoft YaHei" font-size="14" lengthAdjust="spacing" textLength="28" x="28" y="265.8135">&#27979;&#28201;</text><text fill="#000000" font-family="Microsoft YaHei" font-size="14" lengthAdjust="spacing" textLength="70.9434" x="28" y="284.291">MLX90614</text></g><!--entity n3--><g id="elem_n3"><rect fill="#F1F1F1" height="56.9551" rx="2.5" ry="2.5" style="stroke:#181818;stroke-width:0.5;" width="80.9629" x="23" y="358"/><text fill="#000000" font-family="Microsoft YaHei" font-size="14" lengthAdjust="spacing" textLength="60.9629" x="33" y="382.8135">&#36828;&#36317;LoRa</text><text fill="#000000" font-family="Microsoft YaHei" font-size="14" lengthAdjust="spacing" textLength="49.9502" x="33" y="401.291">SX1262</text></g><!--entity n4--><g id="elem_n4"><rect fill="#F1F1F1" height="56.9551" rx="2.5" ry="2.5" style="stroke:#181818;stroke-width:0.5;" width="76.2461" x="25.5" y="475"/><text fill="#000000" font-family="Microsoft YaHei" font-size="14" lengthAdjust="spacing" textLength="42" x="35.5" y="499.8135">&#24191;&#22495;&#32593;</text><text fill="#000000" font-family="Microsoft YaHei" font-size="14" lengthAdjust="spacing" textLength="56.2461" x="35.5" y="518.291">4G EC20</text></g><!--entity n5--><g id="elem_n5"><rect fill="#F1F1F1" height="56.9551" rx="2.5" ry="2.5" style="stroke:#181818;stroke-width:0.5;" width="100.3838" x="13.5" y="592"/><text fill="#000000" font-family="Microsoft YaHei" font-size="14" lengthAdjust="spacing" textLength="28" x="23.5" y="616.8135">&#20379;&#30005;</text><text fill="#000000" font-family="Microsoft YaHei" font-size="14" lengthAdjust="spacing" textLength="80.3838" x="23.5" y="635.291">&#22826;&#38451;&#33021;+&#38146;&#30005;</text></g><!--entity n6--><g id="elem_n6"><rect fill="#F1F1F1" height="56.9551" rx="2.5" ry="2.5" style="stroke:#181818;stroke-width:0.5;" width="87.5322" x="19.5" y="709"/><text fill="#000000" font-family="Microsoft YaHei" font-size="14" lengthAdjust="spacing" textLength="56" x="29.5" y="733.8135">&#30149;&#23475;&#35782;&#21035;</text><text fill="#000000" font-family="Microsoft YaHei" font-size="14" lengthAdjust="spacing" textLength="67.5322" x="29.5" y="752.291">TFLite&#25512;&#29702;</text></g><!--entity n7--><g id="elem_n7"><rect fill="#F1F1F1" height="56.9551" rx="2.5" ry="2.5" style="stroke:#181818;stroke-width:0.5;" width="76" x="25.5" y="826"/><text fill="#000000" font-family="Microsoft YaHei" font-size="14" lengthAdjust="spacing" textLength="28" x="35.5" y="850.8135">&#20113;&#31471;</text><text fill="#000000" font-family="Microsoft YaHei" font-size="14" lengthAdjust="spacing" textLength="56" x="35.5" y="869.291">&#21578;&#35686;&#25512;&#36865;</text></g><!--link n0 to n1--><g id="link_n0_n1"><path d="M63.5,64.05 C63.5,82.12 63.5,99.67 63.5,117.78 " fill="none" id="n0-to-n1" style="stroke:#181818;stroke-width:1.0;"/><polygon fill="#181818" points="63.5,123.78,67.5,114.78,63.5,118.78,59.5,114.78,63.5,123.78" style="stroke:#181818;stroke-width:1.0;"/></g><!--link n1 to n2--><g id="link_n1_n2"><path d="M63.5,181.05 C63.5,199.12 63.5,216.67 63.5,234.78 " fill="none" id="n1-to-n2" style="stroke:#181818;stroke-width:1.0;"/><polygon fill="#181818" points="63.5,240.78,67.5,231.78,63.5,235.78,59.5,231.78,63.5,240.78" style="stroke:#181818;stroke-width:1.0;"/></g><!--link n2 to n3--><g id="link_n2_n3"><path d="M63.5,298.05 C63.5,316.12 63.5,333.67 63.5,351.78 " fill="none" id="n2-to-n3" style="stroke:#181818;stroke-width:1.0;"/><polygon fill="#181818" points="63.5,357.78,67.5,348.78,63.5,352.78,59.5,348.78,63.5,357.78" style="stroke:#181818;stroke-width:1.0;"/></g><!--link n3 to n4--><g id="link_n3_n4"><path d="M63.5,415.05 C63.5,433.12 63.5,450.67 63.5,468.78 " fill="none" id="n3-to-n4" style="stroke:#181818;stroke-width:1.0;"/><polygon fill="#181818" points="63.5,474.78,67.5,465.78,63.5,469.78,59.5,465.78,63.5,474.78" style="stroke:#181818;stroke-width:1.0;"/></g><!--link n4 to n5--><g id="link_n4_n5"><path d="M63.5,532.05 C63.5,550.12 63.5,567.67 63.5,585.78 " fill="none" id="n4-to-n5" style="stroke:#181818;stroke-width:1.0;"/><polygon fill="#181818" points="63.5,591.78,67.5,582.78,63.5,586.78,59.5,582.78,63.5,591.78" style="stroke:#181818;stroke-width:1.0;"/></g><!--link n5 to n6--><g id="link_n5_n6"><path d="M63.5,649.05 C63.5,667.12 63.5,684.67 63.5,702.78 " fill="none" id="n5-to-n6" style="stroke:#181818;stroke-width:1.0;"/><polygon fill="#181818" points="63.5,708.78,67.5,699.78,63.5,703.78,59.5,699.78,63.5,708.78" style="stroke:#181818;stroke-width:1.0;"/></g><!--link n6 to n7--><g id="link_n6_n7"><path d="M63.5,766.05 C63.5,784.12 63.5,801.67 63.5,819.78 " fill="none" id="n6-to-n7" style="stroke:#181818;stroke-width:1.0;"/><polygon fill="#181818" points="63.5,825.78,67.5,816.78,63.5,820.78,59.5,816.78,63.5,825.78" style="stroke:#181818;stroke-width:1.0;"/></g><!--SRC=[LSzDIyCm6C3nUpv5w5K6RPgsUF4YJW-j3fqo8PSmEobkJwMjTrzmY88u64pOP1SHTUWEOpW7Sr_6ldqBE-AXk_r9VZnFufyuSCezti17TesVrOEY2y4sRzXOifogv_fkBS27VCjs9EJPrO33SNrnLzfdi5UsL6AL5CsGCFSno7aHToTHRyfWvq3JgIo0aWVH-2wQl36mpCggh2jK498doRoNV3sPxYxFbbKKeXE1r3mAl-TXln_FMWpe9jvO9__BQ1xz_dJZzfX1-FoUFewIgzbAshxCJWJLbXxUkGu_Hycm6TuC69IBfXFOqVrh_D0KM5-QEst5Ws4sjtMRVBnaB3s_4Cn08ED2OMtnQr144GH4b8f05KKHK54Q0asKZa0NPVm1]--></g></svg>