<svg xmlns="http://www.w3.org/2000/svg" xmlns:xlink="http://www.w3.org/1999/xlink" contentStyleType="text/css" height="262px" preserveAspectRatio="none" style="width:1146px;height:262px;background:#FFFFFF;" version="1.1" viewBox="0 0 1146 262" width="1146px" zoomAndPan="magnify"><defs/><g><!--entity PC--><g id="elem_PC"><rect fill="#F1F1F1" height="48.4775" rx="2.5" ry="2.5" style="stroke:#181818;stroke-width:0.5;" width="267.5273" x="873" y="7.9023"/><rect fill="#F1F1F1" height="10" style="stroke:#181818;stroke-width:0.5;" width="15" x="1120.5273" y="12.9023"/><rect fill="#F1F1F1" height="2" style="stroke:#181818;stroke-width:0.5;" width="4" x="1118.5273" y="14.9023"/><rect fill="#F1F1F1" height="2" style="stroke:#181818;stroke-width:0.5;" width="4" x="1118.5273" y="18.9023"/><text fill="#000000" font-family="Microsoft YaHei" font-size="14" lengthAdjust="spacing" textLength="227.5273" x="888" y="42.7158">PC &#20018;&#21475;&#21161;&#25163; (SSCOM 115200 8N1)</text></g><!--entity CH1--><g id="elem_CH1"><rect fill="#F1F1F1" height="48.4775" rx="2.5" ry="2.5" style="stroke:#181818;stroke-width:0.5;" width="158.2822" x="598" y="47.9023"/><rect fill="#F1F1F1" height="10" style="stroke:#181818;stroke-width:0.5;" width="15" x="736.2822" y="52.9023"/><rect fill="#F1F1F1" height="2" style="stroke:#181818;stroke-width:0.5;" width="4" x="734.2822" y="54.9023"/><rect fill="#F1F1F1" height="2" style="stroke:#181818;stroke-width:0.5;" width="4" x="734.2822" y="58.9023"/><text fill="#000000" font-family="Microsoft YaHei" font-size="14" lengthAdjust="spacing" textLength="118.2822" x="613" y="82.7158">CH340 USB&#36716;&#20018;&#21475;</text></g><!--entity TXD1--><g id="elem_TXD1"><rect fill="#F1F1F1" height="48.4775" rx="2.5" ry="2.5" style="stroke:#181818;stroke-width:0.5;" width="132.8252" x="404" y="57.9023"/><rect fill="#F1F1F1" height="10" style="stroke:#181818;stroke-width:0.5;" width="15" x="516.8252" y="62.9023"/><rect fill="#F1F1F1" height="2" style="stroke:#181818;stroke-width:0.5;" width="4" x="514.8252" y="64.9023"/><rect fill="#F1F1F1" height="2" style="stroke:#181818;stroke-width:0.5;" width="4" x="514.8252" y="68.9023"/><text fill="#000000" font-family="Microsoft YaHei" font-size="14" lengthAdjust="spacing" textLength="92.8252" x="419" y="92.7158">P3.1/PA9 TXD</text></g><!--entity MCU1--><g id="elem_MCU1"><rect fill="#F1F1F1" height="48.4775" rx="2.5" ry="2.5" style="stroke:#181818;stroke-width:0.5;" width="168.9941" x="38.5" y="110.9023"/><rect fill="#F1F1F1" height="10" style="stroke:#181818;stroke-width:0.5;" width="15" x="187.4941" y="115.9023"/><rect fill="#F1F1F1" height="2" style="stroke:#181818;stroke-width:0.5;" width="4" x="185.4941" y="117.9023"/><rect fill="#F1F1F1" height="2" style="stroke:#181818;stroke-width:0.5;" width="4" x="185.4941" y="121.9023"/><text fill="#000000" font-family="Microsoft YaHei" font-size="14" lengthAdjust="spacing" textLength="128.9941" x="53.5" y="145.7158">&#21333;&#29255;&#26426; printf &#37325;&#23450;&#21521;</text></g><!--entity RXD1--><g id="elem_RXD1"><rect fill="#F1F1F1" height="48.4775" rx="2.5" ry="2.5" style="stroke:#181818;stroke-width:0.5;" width="142.1494" x="936" y="107.9023"/><rect fill="#F1F1F1" height="10" style="stroke:#181818;stroke-width:0.5;" width="15" x="1058.1494" y="112.9023"/><rect fill="#F1F1F1" height="2" style="stroke:#181818;stroke-width:0.5;" width="4" x="1056.1494" y="114.9023"/><rect fill="#F1F1F1" height="2" style="stroke:#181818;stroke-width:0.5;" width="4" x="1056.1494" y="118.9023"/><text fill="#000000" font-family="Microsoft YaHei" font-size="14" lengthAdjust="spacing" textLength="102.1494" x="951" y="142.7158">P3.0/PA10 RXD</text></g><g id="elem_GMN13"><path d="M6,194.4023 L6,255.8755 A0,0 0 0 0 6,255.8755 L239.9639,255.8755 A0,0 0 0 0 239.9639,255.8755 L239.9639,204.4023 L229.9639,194.4023 L127,194.4023 L123,159.0423 L119,194.4023 L6,194.4023 A0,0 0 0 0 6,194.4023 " fill="#FEFFDD" style="stroke:#181818;stroke-width:0.5;"/><path d="M229.9639,194.4023 L229.9639,204.4023 L239.9639,204.4023 L229.9639,194.4023 " fill="#FEFFDD" style="stroke:#181818;stroke-width:0.5;"/><text fill="#000000" font-family="Microsoft YaHei" font-size="13" lengthAdjust="spacing" textLength="80.063" x="12" y="213.1577">printf &#35843;&#29992;&#38142;:</text><text fill="#000000" font-family="Microsoft YaHei" font-size="13" lengthAdjust="spacing" textLength="206.4575" x="12" y="230.3154">printf &#8594; vfprintf &#8594; putchar/fputc</text><text fill="#000000" font-family="Microsoft YaHei" font-size="13" lengthAdjust="spacing" textLength="212.9639" x="12" y="247.4731">&#8594; HAL_UART_Transmit/SBUF = ch</text></g><!--link PC to CH1--><g id="link_PC_CH1"><path d="M872.62,51.1423 C862.6,52.4523 852.65,53.7223 843,54.9023 C814.7,58.3523 789.5795,61.0784 762.0995,63.8584 " fill="none" id="PC-to-CH1" style="stroke:#181818;stroke-width:1.0;"/><polygon fill="#181818" points="756.13,64.4623,765.4869,67.5362,761.1046,63.9591,764.6817,59.5768,756.13,64.4623" style="stroke:#181818;stroke-width:1.0;"/><text fill="#000000" font-family="Microsoft YaHei" font-size="13" lengthAdjust="spacing" textLength="25.3652" x="802" y="50.6577">USB</text></g><!--link CH1 to PC--><g id="link_CH1_PC"><path d="M731.34,47.8923 C748.44,41.3623 767.7,35.1823 786,31.9023 C813.91,26.9023 838.1408,24.9 867.0008,24.43 " fill="none" id="CH1-to-PC" style="stroke:#181818;stroke-width:1.0;"/><polygon fill="#181818" points="873,24.3323,863.9361,20.4794,868.0007,24.4138,864.0663,28.4784,873,24.3323" style="stroke:#181818;stroke-width:1.0;"/><text fill="#000000" font-family="Microsoft YaHei" font-size="13" lengthAdjust="spacing" textLength="55.2119" x="787" y="21.6577">USB &#22238;&#26174;</text></g><!--link CH1 to RXD1--><g id="link_CH1_RXD1"><path d="M756.15,86.2023 C810.81,96.2023 877.2978,108.3634 930.0878,118.0134 " fill="none" id="CH1-to-RXD1" style="stroke:#181818;stroke-width:1.0;"/><polygon fill="#181818" points="935.99,119.0923,927.856,113.5392,931.0715,118.1932,926.4174,121.4088,935.99,119.0923" style="stroke:#181818;stroke-width:1.0;"/><text fill="#000000" font-family="Microsoft YaHei" font-size="13" lengthAdjust="spacing" textLength="25.7397" x="802" y="88.6577">TXD</text></g><!--link RXD1 to MCU1--><g id="link_RXD1_MCU1"><path d="M935.83,132.1423 C775.11,132.6923 386.85,134.0119 213.77,134.6019 " fill="none" id="RXD1-to-MCU1" style="stroke:#181818;stroke-width:1.0;"/><polygon fill="#181818" points="207.77,134.6223,216.7836,138.5916,212.77,134.6053,216.7563,130.5917,207.77,134.6223" style="stroke:#181818;stroke-width:1.0;"/></g><!--link MCU1 to TXD1--><g id="link_MCU1_TXD1"><path d="M207.64,122.0723 C267.95,112.8223 342.2893,101.4116 397.9893,92.8716 " fill="none" id="MCU1-to-TXD1" style="stroke:#181818;stroke-width:1.0;"/><polygon fill="#181818" points="403.92,91.9623,394.4178,89.3725,398.9778,92.7201,395.6302,97.2801,403.92,91.9623" style="stroke:#181818;stroke-width:1.0;"/><text fill="#000000" font-family="Microsoft YaHei" font-size="13" lengthAdjust="spacing" textLength="102.9336" x="271" y="92.6577">printf &#36755;&#20986;&#23383;&#33410;&#27969;</text></g><!--link TXD1 to CH1--><g id="link_TXD1_CH1"><path d="M537.05,78.6923 C556.44,77.7523 571.8771,76.9945 591.9771,76.0145 " fill="none" id="TXD1-to-CH1" style="stroke:#181818;stroke-width:1.0;"/><polygon fill="#181818" points="597.97,75.7223,588.7859,72.1654,592.9759,75.9658,589.1755,80.1559,597.97,75.7223" style="stroke:#181818;stroke-width:1.0;"/></g><!--SRC=[NOzDIm916CVl-oaUx587SpSBIYZG3Tb3ckWATP9nNtJHdP7PiNi5YORqOb5KTEbIK151449-c6Xz-HRjh2zfSvXvdl_ydzz_nYbPk88eia4tJ5GjipZ1B8bi0m89IwF48IQ3NQGOLa1m9juyqae5IgfObqcPK9Wp_IMK3S_D252hK6IWMzJGc4Mme16xGh216GHIClnylhid3sxZgLi_XlbCHjvEW2IjB8aYh2QbXG0W1rBoz92iX9T5o6PY_Q_duRHlaXLf1XrUb4Afw1geEvl-lNVE6DpcPQzUwzwreK8jp4mOr9hkwurxUkRR4tBsFq_qU988wH4mpO7U3uB13HuE4VucWLTSuRUUvAKAViardyatlrE7Zb5wlzDoQsttvQhVEEX-x0lgU8Z_QmprqlmKS6_lkzST0HDcG9umHcmWvf0F4-BROU_YST3gHFwqxwDps3EdcagLQKL4GoOlF1_NbEXMBXjDgpcL8kpO5WjbOjauh8DM50oi0q_z1G00]--></g></svg>